<?xml version='1.0' encoding='utf-8'?>
<mxfile host="app.diagrams.net"><diagram name="IT Landscape Table"><mxGraphModel><root><mxCell id="0" /><mxCell id="1" parent="0" /><mxCell id="2" value="Подразделение" style="shape=rectangle;whiteSpace=wrap;html=1;" vertex="1" parent="1"><mxGeometry x="20" y="20" width="220" height="40" as="geometry" /></mxCell><mxCell id="3" value="Поддержка операций по депозитам" style="shape=rectangle;whiteSpace=wrap;html=1;" vertex="1" parent="1"><mxGeometry x="240" y="20" width="220" height="40" as="geometry" /></mxCell><mxCell id="4" value="Обслуживание в интернет-банке" style="shape=rectangle;whiteSpace=wrap;html=1;" vertex="1" parent="1"><mxGeometry x="460" y="20" width="220" height="40" as="geometry" /></mxCell><mxCell id="5" value="Продажи через сайт" style="shape=rectangle;whiteSpace=wrap;html=1;" vertex="1" parent="1"><mxGeometry x="680" y="20" width="220" height="40" as="geometry" /></mxCell><mxCell id="6" value="Работа с обращениями клиентов" style="shape=rectangle;whiteSpace=wrap;html=1;" vertex="1" parent="1"><mxGeometry x="900" y="20" width="220" height="40" as="geometry" /></mxCell><mxCell id="7" value="Участие в обработке ставок по вкладам" style="shape=rectangle;whiteSpace=wrap;html=1;" vertex="1" parent="1"><mxGeometry x="1120" y="20" width="220" height="40" as="geometry" /></mxCell><mxCell id="8" value="Управление обслуживанием в отделениях" style="shape=rectangle;whiteSpace=wrap;html=1;" vertex="1" parent="1"><mxGeometry x="20" y="60" width="220" height="40" as="geometry" /></mxCell><mxCell id="9" value="✔" style="shape=rectangle;whiteSpace=wrap;html=1;" vertex="1" parent="1"><mxGeometry x="240" y="60" width="220" height="40" as="geometry" /></mxCell><mxCell id="10" value="✘" style="shape=rectangle;whiteSpace=wrap;html=1;" vertex="1" parent="1"><mxGeometry x="460" y="60" width="220" height="40" as="geometry" /></mxCell><mxCell id="11" value="✘" style="shape=rectangle;whiteSpace=wrap;html=1;" vertex="1" parent="1"><mxGeometry x="680" y="60" width="220" height="40" as="geometry" /></mxCell><mxCell id="12" value="✘" style="shape=rectangle;whiteSpace=wrap;html=1;" vertex="1" parent="1"><mxGeometry x="900" y="60" width="220" height="40" as="geometry" /></mxCell><mxCell id="13" value="✔" style="shape=rectangle;whiteSpace=wrap;html=1;" vertex="1" parent="1"><mxGeometry x="1120" y="60" width="220" height="40" as="geometry" /></mxCell><mxCell id="14" value="Управление IT" style="shape=rectangle;whiteSpace=wrap;html=1;" vertex="1" parent="1"><mxGeometry x="20" y="100" width="220" height="40" as="geometry" /></mxCell><mxCell id="15" value="✔" style="shape=rectangle;whiteSpace=wrap;html=1;" vertex="1" parent="1"><mxGeometry x="240" y="100" width="220" height="40" as="geometry" /></mxCell><mxCell id="16" value="✔" style="shape=rectangle;whiteSpace=wrap;html=1;" vertex="1" parent="1"><mxGeometry x="460" y="100" width="220" height="40" as="geometry" /></mxCell><mxCell id="17" value="✔" style="shape=rectangle;whiteSpace=wrap;html=1;" vertex="1" parent="1"><mxGeometry x="680" y="100" width="220" height="40" as="geometry" /></mxCell><mxCell id="18" value="✔" style="shape=rectangle;whiteSpace=wrap;html=1;" vertex="1" parent="1"><mxGeometry x="900" y="100" width="220" height="40" as="geometry" /></mxCell><mxCell id="19" value="✘" style="shape=rectangle;whiteSpace=wrap;html=1;" vertex="1" parent="1"><mxGeometry x="1120" y="100" width="220" height="40" as="geometry" /></mxCell><mxCell id="20" value="Управление обслуживанием депозитов" style="shape=rectangle;whiteSpace=wrap;html=1;" vertex="1" parent="1"><mxGeometry x="20" y="140" width="220" height="40" as="geometry" /></mxCell><mxCell id="21" value="✔" style="shape=rectangle;whiteSpace=wrap;html=1;" vertex="1" parent="1"><mxGeometry x="240" y="140" width="220" height="40" as="geometry" /></mxCell><mxCell id="22" value="✘" style="shape=rectangle;whiteSpace=wrap;html=1;" vertex="1" parent="1"><mxGeometry x="460" y="140" width="220" height="40" as="geometry" /></mxCell><mxCell id="23" value="✘" style="shape=rectangle;whiteSpace=wrap;html=1;" vertex="1" parent="1"><mxGeometry x="680" y="140" width="220" height="40" as="geometry" /></mxCell><mxCell id="24" value="✘" style="shape=rectangle;whiteSpace=wrap;html=1;" vertex="1" parent="1"><mxGeometry x="900" y="140" width="220" height="40" as="geometry" /></mxCell><mxCell id="25" value="✔" style="shape=rectangle;whiteSpace=wrap;html=1;" vertex="1" parent="1"><mxGeometry x="1120" y="140" width="220" height="40" as="geometry" /></mxCell><mxCell id="26" value="Управление обслуживанием кредитов" style="shape=rectangle;whiteSpace=wrap;html=1;" vertex="1" parent="1"><mxGeometry x="20" y="180" width="220" height="40" as="geometry" /></mxCell><mxCell id="27" value="✘" style="shape=rectangle;whiteSpace=wrap;html=1;" vertex="1" parent="1"><mxGeometry x="240" y="180" width="220" height="40" as="geometry" /></mxCell><mxCell id="28" value="✘" style="shape=rectangle;whiteSpace=wrap;html=1;" vertex="1" parent="1"><mxGeometry x="460" y="180" width="220" height="40" as="geometry" /></mxCell><mxCell id="29" value="✘" style="shape=rectangle;whiteSpace=wrap;html=1;" vertex="1" parent="1"><mxGeometry x="680" y="180" width="220" height="40" as="geometry" /></mxCell><mxCell id="30" value="✘" style="shape=rectangle;whiteSpace=wrap;html=1;" vertex="1" parent="1"><mxGeometry x="900" y="180" width="220" height="40" as="geometry" /></mxCell><mxCell id="31" value="✔" style="shape=rectangle;whiteSpace=wrap;html=1;" vertex="1" parent="1"><mxGeometry x="1120" y="180" width="220" height="40" as="geometry" /></mxCell><mxCell id="32" value="Кол-центр банка" style="shape=rectangle;whiteSpace=wrap;html=1;" vertex="1" parent="1"><mxGeometry x="20" y="220" width="220" height="40" as="geometry" /></mxCell><mxCell id="33" value="✘" style="shape=rectangle;whiteSpace=wrap;html=1;" vertex="1" parent="1"><mxGeometry x="240" y="220" width="220" height="40" as="geometry" /></mxCell><mxCell id="34" value="✘" style="shape=rectangle;whiteSpace=wrap;html=1;" vertex="1" parent="1"><mxGeometry x="460" y="220" width="220" height="40" as="geometry" /></mxCell><mxCell id="35" value="✘" style="shape=rectangle;whiteSpace=wrap;html=1;" vertex="1" parent="1"><mxGeometry x="680" y="220" width="220" height="40" as="geometry" /></mxCell><mxCell id="36" value="✔" style="shape=rectangle;whiteSpace=wrap;html=1;" vertex="1" parent="1"><mxGeometry x="900" y="220" width="220" height="40" as="geometry" /></mxCell><mxCell id="37" value="✔" style="shape=rectangle;whiteSpace=wrap;html=1;" vertex="1" parent="1"><mxGeometry x="1120" y="220" width="220" height="40" as="geometry" /></mxCell><mxCell id="38" value="Партнёрский кол-центр" style="shape=rectangle;whiteSpace=wrap;html=1;" vertex="1" parent="1"><mxGeometry x="20" y="260" width="220" height="40" as="geometry" /></mxCell><mxCell id="39" value="✘" style="shape=rectangle;whiteSpace=wrap;html=1;" vertex="1" parent="1"><mxGeometry x="240" y="260" width="220" height="40" as="geometry" /></mxCell><mxCell id="40" value="✘" style="shape=rectangle;whiteSpace=wrap;html=1;" vertex="1" parent="1"><mxGeometry x="460" y="260" width="220" height="40" as="geometry" /></mxCell><mxCell id="41" value="✘" style="shape=rectangle;whiteSpace=wrap;html=1;" vertex="1" parent="1"><mxGeometry x="680" y="260" width="220" height="40" as="geometry" /></mxCell><mxCell id="42" value="✔" style="shape=rectangle;whiteSpace=wrap;html=1;" vertex="1" parent="1"><mxGeometry x="900" y="260" width="220" height="40" as="geometry" /></mxCell><mxCell id="43" value="✘" style="shape=rectangle;whiteSpace=wrap;html=1;" vertex="1" parent="1"><mxGeometry x="1120" y="260" width="220" height="40" as="geometry" /></mxCell><mxCell id="44" value="Команда цифровой трансформации" style="shape=rectangle;whiteSpace=wrap;html=1;" vertex="1" parent="1"><mxGeometry x="20" y="300" width="220" height="40" as="geometry" /></mxCell><mxCell id="45" value="✔" style="shape=rectangle;whiteSpace=wrap;html=1;" vertex="1" parent="1"><mxGeometry x="240" y="300" width="220" height="40" as="geometry" /></mxCell><mxCell id="46" value="✔" style="shape=rectangle;whiteSpace=wrap;html=1;" vertex="1" parent="1"><mxGeometry x="460" y="300" width="220" height="40" as="geometry" /></mxCell><mxCell id="47" value="✔" style="shape=rectangle;whiteSpace=wrap;html=1;" vertex="1" parent="1"><mxGeometry x="680" y="300" width="220" height="40" as="geometry" /></mxCell><mxCell id="48" value="✘" style="shape=rectangle;whiteSpace=wrap;html=1;" vertex="1" parent="1"><mxGeometry x="900" y="300" width="220" height="40" as="geometry" /></mxCell><mxCell id="49" value="✘" style="shape=rectangle;whiteSpace=wrap;html=1;" vertex="1" parent="1"><mxGeometry x="1120" y="300" width="220" height="40" as="geometry" /></mxCell></root></mxGraphModel></diagram></mxfile>